<svg width="36" height="36" viewBox="0 0 36 36" fill="none" xmlns="http://www.w3.org/2000/svg">
<path d="M3.77778 28H32.2222C33.2 28 34 27.25 34 26.3333C34 25.4167 33.2 24.6667 32.2222 24.6667H3.77778C2.8 24.6667 2 25.4167 2 26.3333C2 27.25 2.8 28 3.77778 28ZM3.77778 19.6667H32.2222C33.2 19.6667 34 18.9167 34 18C34 17.0833 33.2 16.3333 32.2222 16.3333H3.77778C2.8 16.3333 2 17.0833 2 18C2 18.9167 2.8 19.6667 3.77778 19.6667ZM2 9.66667C2 10.5833 2.8 11.3333 3.77778 11.3333H32.2222C33.2 11.3333 34 10.5833 34 9.66667C34 8.75 33.2 8 32.2222 8H3.77778C2.8 8 2 8.75 2 9.66667Z" fill="#303030"/>
</svg>
