<svg width="20" height="20" viewBox="0 0 20 20" fill="none" xmlns="http://www.w3.org/2000/svg">
<path d="M12.9159 11.6669H12.2576L12.0242 11.4419C12.545 10.8369 12.9257 10.1242 13.1389 9.3549C13.3521 8.5856 13.3926 7.77868 13.2576 6.99189C12.8659 4.67522 10.9326 2.82522 8.59925 2.54189C7.77893 2.43811 6.94574 2.52337 6.16343 2.79113C5.38113 3.0589 4.67045 3.50207 4.08577 4.08675C3.5011 4.67143 3.05792 5.38211 2.79015 6.16441C2.52239 6.94671 2.43713 7.7799 2.54091 8.60022C2.82425 10.9336 4.67425 12.8669 6.99091 13.2586C7.77771 13.3936 8.58463 13.3531 9.35392 13.1398C10.1232 12.9266 10.8359 12.546 11.4409 12.0252L11.6659 12.2586V12.9169L15.2076 16.4586C15.5492 16.8002 16.1076 16.8002 16.4492 16.4586C16.7909 16.1169 16.7909 15.5586 16.4492 15.2169L12.9159 11.6669ZM7.91591 11.6669C5.84091 11.6669 4.16591 9.99189 4.16591 7.91689C4.16591 5.84189 5.84091 4.16689 7.91591 4.16689C9.99091 4.16689 11.6659 5.84189 11.6659 7.91689C11.6659 9.99189 9.99091 11.6669 7.91591 11.6669Z" fill="#303030"/>
</svg>
