<svg width="32" height="32" viewBox="0 0 32 32" fill="none" xmlns="http://www.w3.org/2000/svg">
<path d="M30.2222 22.2222C28 22.2222 25.8667 21.8667 23.8756 21.2089C23.563 21.1093 23.2292 21.0964 22.9099 21.1716C22.5906 21.2467 22.2976 21.4071 22.0622 21.6356L18.1511 25.5467C13.1043 22.9799 9.00228 18.8779 6.43556 13.8311L10.3467 9.90222C10.5821 9.67883 10.749 9.39292 10.8277 9.07804C10.9064 8.76316 10.8937 8.43236 10.7911 8.12444C10.1167 6.07654 9.7746 3.93386 9.77778 1.77778C9.77778 0.8 8.97778 0 8 0H1.77778C0.8 0 0 0.8 0 1.77778C0 18.4711 13.5289 32 30.2222 32C31.2 32 32 31.2 32 30.2222V24C32 23.0222 31.2 22.2222 30.2222 22.2222ZM28.4444 16H32C32 11.7565 30.3143 7.68687 27.3137 4.68629C24.3131 1.68571 20.2435 0 16 0V3.55556C22.88 3.55556 28.4444 9.12 28.4444 16ZM21.3333 16H24.8889C24.8889 11.0933 20.9067 7.11111 16 7.11111V10.6667C18.9511 10.6667 21.3333 13.0489 21.3333 16Z" fill="#303030"/>
</svg>
