<svg width="36" height="36" viewBox="0 0 36 36" fill="none" xmlns="http://www.w3.org/2000/svg">
<path d="M18 2C9.16333 2 2 9.16333 2 18C2 26.8367 9.16333 34 18 34C26.8367 34 34 26.8367 34 18C34 9.16333 26.8367 2 18 2ZM24.1533 20.0517C24.1533 20.0517 25.5683 21.4483 25.9167 22.0967C25.9267 22.11 25.9317 22.1233 25.935 22.13C26.0767 22.3683 26.11 22.5533 26.04 22.6917C25.9233 22.9217 25.5233 23.035 25.3867 23.045H22.8867C22.7133 23.045 22.35 23 21.91 22.6967C21.5717 22.46 21.2383 22.0717 20.9133 21.6933C20.4283 21.13 20.0083 20.6433 19.585 20.6433C19.5312 20.6432 19.4778 20.6517 19.4267 20.6683C19.1067 20.7717 18.6967 21.2283 18.6967 22.445C18.6967 22.825 18.3967 23.0433 18.185 23.0433H17.04C16.65 23.0433 14.6183 22.9067 12.8183 21.0083C10.615 18.6833 8.63167 14.02 8.615 13.9767C8.49 13.675 8.74833 13.5133 9.03 13.5133H11.555C11.8917 13.5133 12.0017 13.7183 12.0783 13.9C12.1683 14.1117 12.4983 14.9533 13.04 15.9C13.9183 17.4433 14.4567 18.07 14.8883 18.07C14.9693 18.069 15.0488 18.0485 15.12 18.01C15.6833 17.6967 15.5783 15.6883 15.5533 15.2717C15.5533 15.1933 15.5517 14.3733 15.2633 13.98C15.0567 13.695 14.705 13.5867 14.4917 13.5467C14.578 13.4275 14.6918 13.3309 14.8233 13.265C15.21 13.0717 15.9067 13.0433 16.5983 13.0433H16.9833C17.7333 13.0533 17.9267 13.1017 18.1983 13.17C18.7483 13.3017 18.76 13.6567 18.7117 14.8717C18.6967 15.2167 18.6817 15.6067 18.6817 16.0667C18.6817 16.1667 18.6767 16.2733 18.6767 16.3867C18.66 17.005 18.64 17.7067 19.0767 17.995C19.1336 18.0307 19.1994 18.0498 19.2667 18.05C19.4183 18.05 19.875 18.05 21.1117 15.9283C21.4931 15.2454 21.8245 14.5358 22.1033 13.805C22.1283 13.7617 22.2017 13.6283 22.2883 13.5767C22.3523 13.5441 22.4232 13.5275 22.495 13.5283H25.4633C25.7867 13.5283 26.0083 13.5767 26.05 13.7017C26.1233 13.9 26.0367 14.505 24.6817 16.34L24.0767 17.1383C22.8483 18.7483 22.8483 18.83 24.1533 20.0517Z" fill="#303030"/>
</svg>
