<svg width="36" height="36" viewBox="0 0 36 36" fill="none" xmlns="http://www.w3.org/2000/svg">
<path d="M18 2C26.8368 2 34 9.1632 34 18C34 26.8368 26.8368 34 18 34C15.1725 34.0045 12.3947 33.2563 9.95202 31.832L2.00642 34L4.16962 26.0512C2.74417 23.6078 1.9953 20.8288 2.00002 18C2.00002 9.1632 9.16322 2 18 2ZM12.5472 10.48L12.2272 10.4928C12.0201 10.5054 11.8176 10.5598 11.632 10.6528C11.4584 10.7511 11.3 10.874 11.1616 11.0176C10.9696 11.1984 10.8608 11.3552 10.744 11.5072C10.1522 12.2766 9.83357 13.2213 9.83842 14.192C9.84162 14.976 10.0464 15.7392 10.3664 16.4528C11.0208 17.896 12.0976 19.424 13.5184 20.84C13.8608 21.1808 14.1968 21.5232 14.5584 21.8416C16.3238 23.3959 18.4276 24.5168 20.7024 25.1152L21.6112 25.2544C21.9072 25.2704 22.2032 25.248 22.5008 25.2336C22.9668 25.2095 23.4218 25.0834 23.8336 24.864C24.0431 24.7561 24.2476 24.6386 24.4464 24.512C24.4464 24.512 24.5152 24.4672 24.6464 24.368C24.8624 24.208 24.9952 24.0944 25.1744 23.9072C25.3072 23.7696 25.4224 23.608 25.5104 23.424C25.6352 23.1632 25.76 22.6656 25.8112 22.2512C25.8496 21.9344 25.8384 21.7616 25.8336 21.6544C25.8272 21.4832 25.6848 21.3056 25.5296 21.2304L24.5984 20.8128C24.5984 20.8128 23.2064 20.2064 22.3552 19.8192C22.2661 19.7803 22.1707 19.7581 22.0736 19.7536C21.9641 19.7423 21.8535 19.7547 21.7492 19.7897C21.6449 19.8248 21.5493 19.8817 21.4688 19.9568C21.4608 19.9536 21.3536 20.0448 20.1968 21.4464C20.1304 21.5356 20.039 21.603 19.9341 21.6401C19.8292 21.6771 19.7157 21.6821 19.608 21.6544C19.5038 21.6264 19.4017 21.5912 19.3024 21.5488C19.104 21.4656 19.0352 21.4336 18.8992 21.376C17.9809 20.9753 17.1307 20.4338 16.3792 19.7712C16.1776 19.5952 15.9904 19.4032 15.7984 19.2176C15.169 18.6148 14.6204 17.9328 14.1664 17.1888L14.072 17.0368C14.0042 16.9347 13.9494 16.8245 13.9088 16.7088C13.848 16.4736 14.0064 16.2848 14.0064 16.2848C14.0064 16.2848 14.3952 15.8592 14.576 15.6288C14.752 15.4048 14.9008 15.1872 14.9968 15.032C15.1856 14.728 15.2448 14.416 15.1456 14.1744C14.6976 13.08 14.2336 11.9904 13.7568 10.9088C13.6624 10.6944 13.3824 10.5408 13.128 10.5104C13.0416 10.5008 12.9552 10.4912 12.8688 10.4848C12.6539 10.4741 12.4386 10.4763 12.224 10.4912L12.5472 10.48Z" fill="#303030"/>
</svg>
